<?xml version="1.0" encoding="UTF-8"?>
<svg id="Layer_1" data-name="Layer 1" xmlns="http://www.w3.org/2000/svg" viewBox="0 0 205.3 139.9">
  <defs>
    <style>
      .cls-1 {
        fill: #e30613;
      }
    </style>
  </defs>
  <path class="cls-1" d="M128.1,56.2c7.2-2.8,14.4-4.1,21.5-4.1s18.1,1.7,26.4,5,15.5,8.4,21.6,15.1c2.8,3.1,5.4,6.6,7.7,10.4V.6h-84.2l-11.3,67.7.6.7c4.5-5.7,10.4-10,17.6-12.8"/>
  <path class="cls-1" d="M46.9,90c7.8-4.9,14.7-9.4,20.7-13.5,5.9-4.1,10.9-8.2,14.8-12.4,3.9-4.2,6.9-8.7,8.9-13.6s3-10.6,3-17-1-9.6-2.9-13.7c-1.9-4.1-4.5-7.6-7.7-10.6-3.2-3-7-5.2-11.4-6.8s-9-2.4-13.9-2.4-12,1.4-16.6,4.1c-4.6,2.7-8.4,6.2-11.4,10.6-3,4.4-5.1,9.3-6.4,14.8-1.3,5.5-1.9,11-1.7,16.6H0c0-1.6,0-3.1,0-4.7v98.5c.2-.7.5-1.5.7-2.1,3.1-7.8,6.9-14.5,11.6-20.3s10-10.8,16-15.2c5.9-4.4,12.1-8.5,18.6-12.3"/>
</svg>