<?xml version="1.0" encoding="UTF-8"?>
<svg id="Layer_1" data-name="Layer 1" xmlns="http://www.w3.org/2000/svg" viewBox="0 0 278.6 180.2">
  <defs>
    <style>
      .cls-1 {
        fill: #8e8e8d;
      }
    </style>
  </defs>
  <polygon class="cls-1" points="182.9 173.5 182.9 173.5 145.3 118.9 141.5 118.9 170.1 160.5 182.4 178.4 186.3 178.4 182.9 173.5"/>
  <g>
    <path class="cls-1" d="M148.2,78.7c1.9,1.1,4.1,2,6.5,2.7,2.4.7,4.9,1.2,7.4,1.8,2.6.5,5,1,7.5,1.6,2.4.6,4.6,1.4,6.5,2.3,1.9,1,3.5,2.2,4.6,3.8.3.4.5.8.8,1.2h3.9c-.3-.8-.6-1.6-1-2.3-1.2-1.9-2.7-3.5-4.6-4.7s-4.1-2.1-6.5-2.8c-2.4-.7-4.9-1.3-7.5-1.8-2.5-.5-5-1-7.4-1.6s-4.6-1.3-6.5-2.2c-1.9-.9-3.4-2.1-4.6-3.6-1.2-1.5-1.8-3.5-1.8-5.8s.5-4.5,1.6-6.1,2.4-3,4-3.9,3.4-1.7,5.3-2c1.9-.4,3.7-.6,5.4-.6,2.7,0,5.2.3,7.5,1,2.3.6,4.3,1.6,6,2.9,1.7,1.3,3,2.9,4,4.8s1.5,4.1,1.6,6.7h3.7c-.2-3.3-.9-6.1-2.1-8.4-1.2-2.3-2.9-4.2-4.9-5.7-2-1.5-4.4-2.5-7.1-3.2-2.7-.7-5.6-1-8.7-1s-4.7.3-7.1.9c-2.4.6-4.5,1.5-6.5,2.8-1.9,1.2-3.5,2.9-4.7,4.9-1.2,2-1.8,4.5-1.8,7.3s.6,5.2,1.8,7c1.2,1.8,2.7,3.3,4.6,4.4"/>
    <path class="cls-1" d="M94.1,158.5c-.8-2.9-1.1-6-1.1-9.2s.5-7.3,1.6-10.7c1.1-3.4,2.6-6.4,4.7-9s4.6-4.7,7.7-6.2c3.1-1.6,6.6-2.3,10.6-2.3s10.1,1.5,13.7,4.4,6.1,7,7.5,12.2h3.5c-.5-3.1-1.5-5.9-3-8.3s-3.4-4.5-5.5-6.2c-2.2-1.7-4.7-3-7.5-3.9-2.8-.9-5.7-1.3-8.8-1.3-4.5,0-8.5.8-12,2.5s-6.4,4-8.8,6.9c-2.4,2.9-4.2,6.2-5.5,10-1.2,3.8-1.9,7.8-1.9,12s.3,6.3,1,9.2h3.8,0Z"/>
    <path class="cls-1" d="M118,149.6v3.2h21.9c.2,3.7-.2,7-1.2,10-1,3-2.5,5.5-4.5,7.6s-4.4,3.8-7.2,4.9c-2.7,1.1-5.8,1.7-9.2,1.7v3.2c2.4,0,4.7-.4,7-1,2.4-.7,4.6-1.6,6.6-2.8,2-1.2,3.7-2.7,5.1-4.4,1.4-1.8,2.5-3.7,3.2-5.9h.2v12.7h3.2v-29.2h-25.1Z"/>
    <path class="cls-1" d="M133.9,70.7c-.9-3.6-2.4-6.8-4.5-9.6-2.1-2.8-5-5-8.5-6.7-3.6-1.7-8-2.5-13.4-2.5h-19.6v3.2h19c1.4,0,3.1,0,4.9.3,1.8.2,3.6.6,5.4,1.2,1.8.6,3.6,1.5,5.3,2.6,1.7,1.2,3.2,2.7,4.5,4.7,1.3,2,2.4,4.4,3.2,7.3.8,2.9,1.2,6.4,1.2,10.5s-.7,9.5-2.1,13-3.3,6.2-5.6,8.2c-2.3,2-4.9,3.5-7.7,4.4-2.8.9-5.6,1.3-8.4,1.3h-16.1v-25.4h-3.7v28.6h19.5c4.8,0,9-.8,12.4-2.3,3.5-1.5,6.4-3.7,8.7-6.3s4-5.9,5.1-9.5c1.1-3.7,1.6-7.6,1.6-11.9s-.4-7.5-1.3-11.1"/>
    <path class="cls-1" d="M146.6,103c-.4-.4-1-.6-1.7-.6s-.9,0-1.3.3c-.3.2-.6.4-.8.6-.2.2-.3.5-.4.8,0,.3-.1.5-.1.8h5.2c-.1-.8-.4-1.4-.8-1.8M143,109.1c.5.5,1.2.7,2.1.7s1.2-.2,1.7-.5.8-.7.9-1h2.8c-.4,1.4-1.1,2.4-2.1,3-.9.6-2.1.9-3.4.9s-1.7-.2-2.5-.4c-.7-.3-1.4-.7-1.9-1.2s-.9-1.2-1.2-1.9-.4-1.6-.4-2.5.1-1.7.4-2.4c.3-.8.7-1.4,1.2-1.9s1.1-1,1.9-1.3c.7-.3,1.5-.5,2.4-.5s1.9.2,2.6.6,1.3.9,1.8,1.5c.5.6.8,1.4,1,2.2s.3,1.7.2,2.6h-8.4c0,1,.3,1.8.8,2.2"/>
  </g>
  <path class="cls-1" d="M193.3,112.5h-3.2v-11.6h3.2v11.6ZM190.1,96.5h3.2v2.6h-3.2v-2.6Z"/>
</svg>