<?xml version="1.0" encoding="UTF-8"?>
<svg id="Layer_1" xmlns="http://www.w3.org/2000/svg" version="1.1" viewBox="0 0 127.49 155.76">
  <!-- Generator: Adobe Illustrator 29.6.1, SVG Export Plug-In . SVG Version: 2.1.1 Build 9)  -->
  <defs>
    <style>
      .st0 {
        fill: #8e8e8d;
      }
    </style>
  </defs>
  <g>
    <polygon points="5.65 144.19 7.25 144.19 7.25 147.39 7.25 147.39 9.25 144.19 10.95 144.19 8.85 147.59 11.25 152.09 9.45 152.09 7.75 148.89 7.25 149.69 7.25 152.09 5.65 152.09 5.65 144.19"/>
    <path d="M14.75,149.09l-.8-3.5h0l-.8,3.5h1.6ZM13.05,144.19h2l2,7.8h-1.7l-.4-1.7h-2.1l-.4,1.7h-1.7l2-7.8h.3Z"/>
    <path d="M21.85,149.89c.5,0,.9-.2,1.2-.5s.4-.8.4-1.3v-.7c0-.2-.2-.4-.3-.5s-.3-.3-.4-.4-.4,0-.7,0v3.6h0l-.2-.2ZM20.35,146.29h-.7c-.2,0-.4.2-.4.4l-.3.5v.7c0,.5,0,1,.4,1.3.3.4.6.5,1.2.5v-3.6h0l-.2.2ZM20.25,151.19c-1,0-1.8-.3-2.3-.8s-.8-1.3-.8-2.2,0-.9.2-1.2.4-.7.6-1c.3-.3.6-.4,1-.6s.8-.2,1.3-.2v-1h1.6v1c.4,0,.9,0,1.3.2s.7.4,1,.6c.3.3.4.6.6,1s.2.8.2,1.2c0,1-.3,1.7-.8,2.2s-1.3.8-2.3.8v1.1h-1.6v-1.1h0Z"/>
    <polygon points="25.85 144.19 30.25 144.19 30.25 145.49 27.45 145.49 27.45 147.39 30.05 147.39 30.05 148.69 27.45 148.69 27.45 150.69 30.35 150.69 30.35 152.09 25.85 152.09 25.85 144.19"/>
    <g>
      <path d="M34.95,150.69v-5.2h-1.5v3.3c0,.4,0,.7-.2,1.1,0,.4-.2.6-.3.9h2v-.1ZM30.55,150.69h.6c.2-.4.4-.7.4-1.1s.2-.7.3-1.1v-4.4h4.5v6.6h.7v2.8h-1.4v-1.5h-3.8v1.5h-1.4v-2.8h.1Z"/>
      <path d="M40.25,147.79c.4,0,.5,0,.8-.3.2-.2.3-.4.3-.9s0-.7-.3-.9-.4-.3-.9-.3h-.6v2.4h.7ZM37.95,144.19h2.7c.4,0,.7,0,1,.2s.5.4.6.5c.2.2.3.4.4.8s0,.5,0,.9,0,.8-.2,1.1c0,.3-.3.5-.5.7s-.4.4-.8.4-.6.2-1,.2h-.9v3.1h-1.6v-7.8h.2l.1-.1Z"/>
    </g>
    <path d="M46.45,149.09l-.8-3.5h0l-.8,3.5h1.6ZM44.75,144.19h2l2,7.8h-1.7l-.4-1.7h-2.1l-.4,1.7h-1.7l2-7.8h.3Z"/>
    <path d="M55.75,150.69v-5.2h-1.5v3.3c0,.4,0,.7-.2,1.1,0,.4-.2.6-.3.9h2v-.1ZM51.45,150.69h.6c.2-.4.4-.7.4-1.1s.2-.7.3-1.1v-4.4h4.5v6.6h.7v2.8h-1.4v-1.5h-3.8v1.5h-1.4v-2.8h.1Z"/>
    <polygon points="58.75 144.19 60.25 144.19 60.25 149.19 62.15 144.19 63.95 144.19 63.95 152.09 62.35 152.09 62.35 146.99 60.45 152.09 58.75 152.09 58.75 144.19"/>
    <path d="M67.15,152.09c-.4,0-.9,0-1.2-.2s-.6-.3-.8-.4-.4-.4-.4-.8v-1.1h1.6v.6c0,.2,0,.3.2.4,0,0,.2.2.3.3s.3,0,.5,0,.6,0,.7-.3c.2-.2.3-.5.3-.9s0-.8-.3-1c-.2-.2-.4-.3-.9-.3h-.5v-1.2h.4c.4,0,.7,0,.9-.3.2-.2.3-.5.3-1s0-.6-.2-.7c-.2-.2-.4-.2-.6-.2s-.4,0-.6.2c-.2,0-.3.3-.3.5v.4h-1.5c0-.8.2-1.3.6-1.8.4-.4,1.1-.5,1.9-.5s1.3.2,1.8.5c.5.3.6.9.6,1.5s0,.4,0,.5,0,.4-.2.5-.2.3-.4.4c-.2,0-.4.2-.5.3.4,0,.8.3,1,.6s.4.7.4,1.2c0,.8-.3,1.4-.7,1.9s-1.2.6-2,.6"/>
    <path d="M74.05,149.09l-.8-3.5h0l-.8,3.5h1.6ZM72.25,144.19h2l2,7.8h-1.7l-.4-1.7h-2.1l-.4,1.7h-1.7l2-7.8h.3Z"/>
    <path d="M78.35,143.29c-.3-.3-.4-.6-.4-1.2h.7c0,.2,0,.4.3.5s.4.2.5.2.4,0,.5-.2c.2,0,.3-.3.3-.5h.7c0,.4-.2.9-.4,1.2s-.6.4-1.2.4-.9-.2-1.2-.4M76.85,144.19h1.5v5.1l2-5.1h1.7v7.8h-1.5v-5.1l-2,5.1h-1.7v-7.8Z"/>
    <polygon points="83.05 144.19 84.65 144.19 84.65 147.19 86.45 147.19 86.45 144.19 88.05 144.19 88.05 152.09 86.45 152.09 86.45 148.59 84.65 148.59 84.65 152.09 83.05 152.09 83.05 144.19"/>
    <path d="M92.45,149.09l-.8-3.5h0l-.8,3.5h1.6ZM90.65,144.19h2l2,7.8h-1.7l-.4-1.7h-2.1l-.4,1.7h-1.7l2-7.8h.3Z"/>
    <path d="M100.45,152.09c-.6,0-1.1,0-1.4-.3-.4-.2-.6-.4-.8-.8s-.3-.8-.4-1.2v-3.3c0-.5.2-1,.4-1.3s.4-.6.8-.8.8-.3,1.4-.3,1,0,1.3.3c.4.2.5.4.7.7.2.3.3.6.3.9v.9h-1.6c0-.5,0-1-.2-1.2s-.4-.4-.7-.4-.4,0-.5.2-.3.3-.3.5,0,.5-.2,1,0,.9,0,1.4v1.4c0,.4,0,.6.2.9s.2.4.4.4h.8s.3-.2.4-.3.2-.4.2-.6v-1.1h1.6v1.2c0,.4-.2.7-.4,1s-.4.5-.8.7-.7.3-1.2.3"/>
    <polygon points="103.85 144.19 108.75 144.19 108.75 152.09 107.15 152.09 107.15 145.49 105.45 145.49 105.45 152.09 103.85 152.09 103.85 144.19"/>
    <path d="M112.05,151.19h.4c.1,0,.2-.2.3-.4s0-.4.2-.6v-2.6c0-.2-.2-.3-.3-.4s-.2,0-.4,0h-.4s-.2.2-.3.4,0,.4-.2.6v1c0,.7,0,1.2.2,1.5s.4.4.6.4M111.95,152.09c-.5,0-.9,0-1.2-.3-.3-.2-.5-.4-.7-.8s-.3-.7-.3-1.2v-2.8c0-.4.2-.9.4-1.2s.4-.7.6-1,.6-.4,1.1-.5c.4,0,.6,0,.8-.2s.3,0,.4-.2h1.2v.7c0,.2-.2.4-.4.4s-.4.2-.5.3h-.8c-.4,0-.5,0-.8.2s-.4.2-.5.3-.3.4-.4.5-.2.5-.2.8h0c0-.2.2-.4.3-.5,0-.2.3-.3.4-.4s.3-.2.4-.2h.5c.4,0,.7,0,1,.3s.4.4.6.6.3.6.4,1v2.4c0,.4-.2.7-.4,1-.2.3-.4.4-.7.6s-.7.2-1.2.2"/>
    <polygon points="115.25 144.19 119.55 144.19 119.55 145.49 116.85 145.49 116.85 152.09 115.25 152.09 115.25 144.19"/>
    <path d="M121.05,152.09h-.7v-1.2h.4c.3,0,.4,0,.5-.2s.3-.4.4-.5v-.2l-2-5.8h1.8l1.2,3.8,1.1-3.8h1.7l-1.9,5.7c-.2.4-.3.8-.4,1.1s-.3.5-.4.7c-.2.2-.4.3-.6.4s-.5,0-.9,0"/>
  </g>
  <g>
    <polygon class="st0" points="107.75 128.89 107.75 128.89 70.15 74.29 66.35 74.29 94.95 115.99 107.25 133.79 111.15 133.79 107.75 128.89"/>
    <g>
      <path class="st0" d="M73.05,34.09c1.9,1.1,4.1,2,6.5,2.7s4.9,1.2,7.4,1.8c2.6.5,5,1,7.5,1.6,2.4.6,4.6,1.4,6.5,2.3,1.9,1,3.5,2.2,4.6,3.8.3.4.5.8.8,1.2h3.9c-.3-.8-.6-1.6-1-2.3-1.2-1.9-2.7-3.5-4.6-4.7s-4.1-2.1-6.5-2.8c-2.4-.7-4.9-1.3-7.5-1.8-2.5-.5-5-1-7.4-1.6s-4.6-1.3-6.5-2.2c-1.9-.9-3.4-2.1-4.6-3.6s-1.8-3.5-1.8-5.8.5-4.5,1.6-6.1,2.4-3,4-3.9,3.4-1.7,5.3-2c1.9-.4,3.7-.6,5.4-.6,2.7,0,5.2.3,7.5,1,2.3.6,4.3,1.6,6,2.9,1.7,1.3,3,2.9,4,4.8s1.5,4.1,1.6,6.7h3.7c-.2-3.3-.9-6.1-2.1-8.4-1.2-2.3-2.9-4.2-4.9-5.7s-4.4-2.5-7.1-3.2-5.6-1-8.7-1-4.7.3-7.1.9c-2.4.6-4.5,1.5-6.5,2.8-1.9,1.2-3.5,2.9-4.7,4.9s-1.8,4.5-1.8,7.3.6,5.2,1.8,7,2.7,3.3,4.6,4.4"/>
      <path class="st0" d="M18.95,113.99c-.8-2.9-1.1-6-1.1-9.2s.5-7.3,1.6-10.7c1.1-3.4,2.6-6.4,4.7-9s4.6-4.7,7.7-6.2c3.1-1.6,6.6-2.3,10.6-2.3s10.1,1.5,13.7,4.4,6.1,7,7.5,12.2h3.5c-.5-3.1-1.5-5.9-3-8.3s-3.4-4.5-5.5-6.2c-2.2-1.7-4.7-3-7.5-3.9s-5.7-1.3-8.8-1.3c-4.5,0-8.5.8-12,2.5s-6.4,4-8.8,6.9-4.2,6.2-5.5,10c-1.2,3.8-1.9,7.8-1.9,12s.3,6.3,1,9.2h3.8v-.1Z"/>
      <path class="st0" d="M42.85,104.99v3.2h21.9c.2,3.7-.2,7-1.2,10s-2.5,5.5-4.5,7.6-4.4,3.8-7.2,4.9c-2.7,1.1-5.8,1.7-9.2,1.7v3.2c2.4,0,4.7-.4,7-1,2.4-.7,4.6-1.6,6.6-2.8,2-1.2,3.7-2.7,5.1-4.4,1.4-1.8,2.5-3.7,3.2-5.9h.2v12.7h3.2v-29.2h-25.1,0Z"/>
      <path class="st0" d="M58.75,26.19c-.9-3.6-2.4-6.8-4.5-9.6s-5-5-8.5-6.7c-3.6-1.7-8-2.5-13.4-2.5H12.75v3.2h19c1.4,0,3.1,0,4.9.3,1.8.2,3.6.6,5.4,1.2,1.8.6,3.6,1.5,5.3,2.6,1.7,1.2,3.2,2.7,4.5,4.7s2.4,4.4,3.2,7.3c.8,2.9,1.2,6.4,1.2,10.5s-.7,9.5-2.1,13-3.3,6.2-5.6,8.2-4.9,3.5-7.7,4.4-5.6,1.3-8.4,1.3h-16v-25.4h-3.7v28.6h19.5c4.8,0,9-.8,12.4-2.3,3.5-1.5,6.4-3.7,8.7-6.3s4-5.9,5.1-9.5c1.1-3.7,1.6-7.6,1.6-11.9s-.4-7.5-1.3-11.1"/>
      <path class="st0" d="M71.45,58.49c-.4-.4-1-.6-1.7-.6s-.9,0-1.3.3c-.3.2-.6.4-.8.6s-.3.5-.4.8c0,.3-.1.5-.1.8h5.2c-.1-.8-.4-1.4-.8-1.8M67.85,64.59c.5.5,1.2.7,2.1.7s1.2-.2,1.7-.5.8-.7.9-1h2.8c-.4,1.4-1.1,2.4-2.1,3-.9.6-2.1.9-3.4.9s-1.7-.2-2.5-.4c-.7-.3-1.4-.7-1.9-1.2s-.9-1.2-1.2-1.9-.4-1.6-.4-2.5.1-1.7.4-2.4c.3-.8.7-1.4,1.2-1.9s1.1-1,1.9-1.3c.7-.3,1.5-.5,2.4-.5s1.9.2,2.6.6,1.3.9,1.8,1.5.8,1.4,1,2.2.3,1.7.2,2.6h-8.4c0,1,.3,1.8.8,2.2"/>
    </g>
    <path class="st0" d="M118.15,67.89h-3.2v-11.6h3.2v11.6ZM114.95,51.89h3.2v2.6h-3.2v-2.6Z"/>
  </g>
</svg>