<?xml version="1.0" encoding="UTF-8"?>
<svg id="Layer_1" data-name="Layer 1" xmlns="http://www.w3.org/2000/svg" viewBox="0 0 278.6 73.7">
  <defs>
    <style>
      .cls-1 {
        fill: #8e8e8d;
      }

      .cls-2 {
        fill: #e30613;
      }
    </style>
  </defs>
  <g>
    <path class="cls-2" d="M64.3,31.8c3.6-1.4,7.2-2.1,10.8-2.1s9.1.8,13.2,2.5,7.8,4.2,10.9,7.6c1.4,1.6,2.7,3.3,3.8,5.2V3.9h-42.2l-5.7,33.9.3.3c2.3-2.9,5.2-5,8.8-6.4"/>
    <path class="cls-2" d="M23.5,48.8c3.9-2.4,7.4-4.7,10.4-6.8,3-2.1,5.4-4.1,7.4-6.2s3.5-4.4,4.5-6.8,1.5-5.3,1.5-8.5-.5-4.8-1.4-6.9c-1-2.1-2.3-3.8-3.9-5.3-1.6-1.5-3.5-2.6-5.7-3.4s-4.5-1.2-7-1.2-6,.7-8.3,2c-2.3,1.4-4.2,3.1-5.7,5.3-1.5,2.2-2.6,4.7-3.2,7.4-.7,2.8-.9,5.5-.9,8.3H0v-2.4,49.4c0-.4.2-.7.4-1.1,1.5-3.9,3.5-7.3,5.8-10.2s5-5.4,8-7.6,6.1-4.2,9.3-6.2"/>
  </g>
  <polygon points="132.1 59.6 133.9 59.6 133.9 63.1 133.9 63.1 136.2 59.6 138.1 59.6 135.7 63.4 138.4 68.4 136.4 68.4 134.5 64.8 133.9 65.8 133.9 68.4 132.1 68.4 132.1 59.6"/>
  <path d="M142.4,65.1l-.9-4h0l-.9,4h1.8ZM140.5,59.6h2.2l2.3,8.8h-1.9l-.4-1.9h-2.4l-.4,1.9h-1.9l2.3-8.8h.2Z"/>
  <path d="M150.4,66c.6,0,1-.2,1.3-.6s.4-.9.4-1.5v-.8c0-.2-.2-.5-.3-.6s-.3-.3-.5-.4-.5-.1-.8-.1v4.1h0ZM148.7,61.9c-.3,0-.6,0-.8.1s-.4.2-.5.4l-.3.6c-.1.2,0,.5,0,.8,0,.6.1,1.1.4,1.5.3.4.7.6,1.3.6v-4.1h0ZM148.6,67.4c-1.1,0-2-.3-2.6-.9s-.9-1.5-.9-2.5,0-1,.2-1.4.4-.8.7-1.1c.3-.3.7-.5,1.1-.7.4-.2.9-.2,1.5-.2v-1.1h1.8v1.1c.5,0,1,0,1.5.2s.8.4,1.1.7c.3.3.5.7.7,1.1s.2.9.2,1.4c0,1.1-.3,1.9-.9,2.5s-1.5.9-2.6.9v1.2h-1.8v-1.2h0Z"/>
  <polygon points="154.9 59.6 159.8 59.6 159.8 61 156.7 61 156.7 63.1 159.6 63.1 159.6 64.6 156.7 64.6 156.7 66.9 160 66.9 160 68.4 154.9 68.4 154.9 59.6"/>
  <g>
    <path d="M165.2,66.9v-5.9h-1.7v2.5c0,.4,0,.8-.1,1.2s-.1.8-.2,1.2c0,.4-.2.7-.3,1h2.3ZM160.2,66.9h.7c.2-.4.4-.8.5-1.2.1-.4.2-.8.3-1.2v-5h5.1v7.4h.8v3.2h-1.6v-1.7h-4.3v1.7h-1.6v-3.2h.1Z"/>
    <path d="M171.1,63.6c.4,0,.6-.1.9-.3.2-.2.3-.5.3-1s0-.8-.3-1-.5-.3-1-.3h-.7v2.7h.8ZM168.5,59.6h3.1c.5,0,.8,0,1.1.2s.6.4.7.6c.2.2.3.5.4.9s.1.6.1,1,0,.9-.2,1.2c-.1.3-.3.6-.6.8-.2.2-.5.4-.9.5s-.7.2-1.1.2h-1v3.5h-1.8v-8.8h.2Z"/>
  </g>
  <path d="M178.1,65.1l-.9-4h0l-.9,4h1.8ZM176.2,59.6h2.2l2.3,8.8h-1.9l-.4-1.9h-2.4l-.4,1.9h-1.9l2.3-8.8h.2Z"/>
  <path d="M188.6,66.9v-5.9h-1.7v2.5c0,.4,0,.8-.1,1.2s-.1.8-.2,1.2c0,.4-.2.7-.3,1h2.3ZM183.7,66.9h.7c.2-.4.4-.8.5-1.2.1-.4.2-.8.3-1.2v-5h5.1v7.4h.8v3.2h-1.6v-1.7h-4.3v1.7h-1.6v-3.2h.1Z"/>
  <polygon points="192 59.6 193.7 59.6 193.7 65.2 195.8 59.6 197.8 59.6 197.8 68.4 196 68.4 196 62.7 193.9 68.4 192 68.4 192 59.6"/>
  <path d="M201.5,68.5c-.5,0-1,0-1.3-.2s-.7-.3-.9-.5-.4-.5-.5-.9-.1-.8-.1-1.2h0c0-.1,1.8-.1,1.8-.1h0v.7c0,.2,0,.3.2.5,0,.1.2.2.3.3s.3.1.6.1.7-.1.8-.3c.2-.2.3-.6.3-1s0-.9-.3-1.1c-.2-.2-.5-.3-1-.3h-.6v-1.4h.4c.5,0,.8-.1,1-.3.2-.2.3-.6.3-1.1s0-.7-.2-.8c-.2-.2-.4-.2-.7-.2s-.5,0-.7.2c-.2.1-.3.3-.3.6v.5h-1.7c0-.9.2-1.5.7-2,.5-.4,1.2-.6,2.1-.6s1.5.2,2,.6.7,1,.7,1.7,0,.4,0,.6-.1.4-.2.6-.2.3-.4.5c-.2.1-.4.2-.6.3.5.1.9.3,1.1.7s.4.8.4,1.4c0,.9-.3,1.6-.8,2.1s-1.3.7-2.2.7"/>
  <path d="M209.2,65.1l-.9-4h0l-.9,4h1.8ZM207.2,59.6h2.2l2.3,8.8h-1.9l-.4-1.9h-2.4l-.4,1.9h-1.9l2.3-8.8h.2Z"/>
  <path d="M214.1,58.5c-.3-.3-.5-.7-.5-1.3h.8c0,.2.1.4.3.6s.4.2.6.2.5,0,.6-.2c.2-.1.3-.3.3-.6h.8c0,.5-.2,1-.5,1.3s-.7.5-1.3.5-1-.2-1.3-.5M212.4,59.6h1.7v5.7l2.2-5.7h1.9v8.8h-1.7v-5.7l-2.2,5.7h-1.9v-8.8Z"/>
  <polygon points="219.4 59.6 221.2 59.6 221.2 62.9 223.2 62.9 223.2 59.6 225 59.6 225 68.4 223.2 68.4 223.2 64.5 221.2 64.5 221.2 68.4 219.4 68.4 219.4 59.6"/>
  <path d="M230,65.1l-.9-4h0l-.9,4h1.8ZM228,59.6h2.2l2.3,8.8h-1.9l-.4-1.9h-2.4l-.4,1.9h-1.9l2.3-8.8h.2Z"/>
  <path d="M239,68.5c-.7,0-1.2-.1-1.6-.3-.4-.2-.7-.5-.9-.9s-.3-.9-.4-1.4v-3.7c0-.6.2-1.1.4-1.5s.5-.7.9-.9.9-.3,1.6-.3,1.1.1,1.5.3c.4.2.6.5.8.8.2.3.3.7.3,1v1h-1.8c0-.6,0-1.1-.2-1.4s-.4-.4-.8-.4-.4,0-.6.2-.3.3-.3.6-.1.6-.2,1.1,0,1,0,1.6v1.6c0,.4.1.7.2,1s.2.4.4.5.3.1.5.1h.4c.1,0,.3-.2.4-.3s.2-.4.2-.7v-1.2h1.8c0,.5,0,.9-.1,1.4,0,.4-.2.8-.4,1.1s-.5.6-.9.8-.8.3-1.4.3"/>
  <polygon points="242.8 59.6 248.4 59.6 248.4 68.4 246.6 68.4 246.6 61 244.6 61 244.6 68.4 242.8 68.4 242.8 59.6"/>
  <path d="M252.1,67.4c.2,0,.3,0,.4-.1s.2-.2.3-.4.1-.4.2-.7v-2.2c0-.3,0-.5-.1-.7,0-.2-.2-.3-.3-.4s-.2,0-.4,0-.3,0-.4.1c-.1,0-.2.2-.3.4s-.1.4-.2.7v1.1c0,.8,0,1.4.2,1.7s.4.5.7.5M252,68.5c-.6,0-1-.1-1.4-.3-.3-.2-.6-.5-.8-.9s-.3-.8-.3-1.3v-3.2c0-.5.2-1,.4-1.4s.4-.8.7-1.1.7-.5,1.2-.6c.4,0,.7-.1.9-.2s.3-.1.4-.2h1.3c0,.3,0,.6-.1.8,0,.2-.2.4-.4.5-.2.1-.4.2-.6.3-.2,0-.5.1-.9.1s-.6,0-.9.2-.5.2-.6.3-.3.4-.4.6-.2.6-.2.9h0c0-.2.2-.4.3-.6.1-.2.3-.3.5-.4s.3-.2.5-.2h.6c.4,0,.8,0,1.1.3s.5.4.7.7.3.7.4,1.1c0,.4.1.9.1,1.4s0,1-.1,1.4c0,.4-.2.8-.4,1.1-.2.3-.5.5-.8.7s-.8.2-1.4.2"/>
  <polygon points="255.7 59.6 260.5 59.6 260.5 61 257.5 61 257.5 68.4 255.7 68.4 255.7 59.6"/>
  <path d="M262.2,68.4h-.8v-1.4h.5c.3,0,.5,0,.6-.2s.3-.4.4-.6v-.2l-2.3-6.5h2l1.3,4.3,1.2-4.3h1.9l-2.1,6.4c-.2.5-.3.9-.4,1.2s-.3.6-.5.8c-.2.2-.4.3-.7.4s-.6.1-1,.1"/>
  <polygon class="cls-1" points="276.2 40.6 276.1 40.6 248.8 .8 246 .8 266.8 31.1 275.8 44.1 278.6 44.1 276.2 40.6"/>
  <g>
    <path class="cls-1" d="M175.1,19.9c1.4.8,2.9,1.5,4.7,2,1.8.5,3.6.9,5.4,1.3,1.9.4,3.7.8,5.4,1.2,1.8.4,3.3,1,4.7,1.7,1.4.7,2.5,1.6,3.4,2.8.2.3.4.6.5.9h2.9c-.2-.6-.4-1.2-.7-1.7-.9-1.4-2-2.5-3.4-3.4s-3-1.6-4.7-2.1c-1.8-.5-3.6-.9-5.4-1.3s-3.6-.7-5.4-1.1-3.4-.9-4.7-1.6c-1.4-.7-2.5-1.5-3.3-2.6s-1.3-2.5-1.3-4.2.4-3.3,1.1-4.5c.8-1.2,1.8-2.1,2.9-2.9s2.5-1.2,3.9-1.5,2.7-.4,3.9-.4c2,0,3.8.2,5.5.7s3.1,1.2,4.3,2.1c1.2.9,2.2,2.1,2.9,3.5.7,1.4,1.1,3,1.2,4.9h2.7c-.1-2.4-.6-4.4-1.5-6.1s-2.1-3.1-3.5-4.2-3.2-1.9-5.2-2.4-4.1-.8-6.3-.8-3.4.2-5.2.6-3.3,1.1-4.7,2c-1.4.9-2.5,2.1-3.4,3.6s-1.3,3.2-1.3,5.3.4,3.8,1.3,5.1,2,2.4,3.3,3.2"/>
    <path class="cls-1" d="M214,29.7c-.5-2.1-.8-4.4-.8-6.7s.4-5.3,1.2-7.8c.8-2.5,1.9-4.7,3.4-6.6s3.4-3.4,5.6-4.5,4.8-1.7,7.7-1.7,7.3,1.1,10,3.2c2.6,2.1,4.4,5.1,5.5,8.9h2.5c-.4-2.3-1.1-4.3-2.2-6.1-1.1-1.8-2.4-3.3-4-4.5s-3.4-2.2-5.4-2.9c-2-.6-4.1-1-6.4-1-3.3,0-6.2.6-8.7,1.8-2.5,1.2-4.7,2.9-6.4,5-1.7,2.1-3.1,4.5-4,7.3s-1.4,5.7-1.4,8.8.2,4.6.8,6.7h2.7-.1Z"/>
    <path class="cls-1" d="M231.4,23.2v2.3h16c.1,2.7-.2,5.1-.9,7.2s-1.8,4-3.2,5.6c-1.4,1.5-3.2,2.7-5.2,3.6-2,.8-4.2,1.2-6.7,1.3v2.3c1.8,0,3.4-.3,5.1-.7,1.8-.5,3.4-1.2,4.8-2,1.4-.9,2.7-1.9,3.7-3.2,1.1-1.3,1.8-2.7,2.4-4.3h.1v9.2h2.3v-21.2h-18.4Z"/>
    <path class="cls-1" d="M164.6,14.1c-.6-2.6-1.7-4.9-3.3-7-1.5-2-3.6-3.7-6.2-4.9s-5.8-1.8-9.7-1.8h-14.3v2.3h13.9c1.1,0,2.3,0,3.6.2s2.6.4,4,.9,2.6,1.1,3.8,1.9,2.3,2,3.3,3.4,1.7,3.2,2.3,5.3c.6,2.1.9,4.7.9,7.6s-.5,6.9-1.6,9.4c-1,2.5-2.4,4.5-4.1,6-1.7,1.5-3.5,2.5-5.6,3.2-2.1.6-4.1.9-6.1.9h-11.7v-18.5h-2.7v20.8h14.2c3.5,0,6.5-.6,9.1-1.7,2.5-1.1,4.6-2.7,6.3-4.6s2.9-4.3,3.7-6.9c.8-2.7,1.2-5.5,1.2-8.6s-.3-5.4-.9-8.1"/>
    <path class="cls-1" d="M173.9,37.6c-.3-.3-.7-.5-1.3-.5s-.7,0-.9.2c-.2.1-.4.3-.6.5-.1.2-.2.4-.3.6,0,.2,0,.4-.1.6h3.8c-.1-.6-.3-1-.6-1.3M171.3,42c.3.3.9.5,1.5.5s.9-.1,1.2-.4c.3-.2.5-.5.6-.7h2c-.3,1-.8,1.7-1.5,2.2-.7.4-1.5.7-2.5.7s-1.3-.1-1.8-.3c-.5-.2-1-.5-1.4-.9s-.7-.9-.9-1.4c-.2-.5-.3-1.1-.3-1.8s.1-1.2.3-1.8c.2-.5.5-1,.9-1.4s.8-.7,1.4-.9c.5-.2,1.1-.3,1.8-.3s1.3.1,1.9.4c.5.3,1,.7,1.3,1.1s.6,1,.7,1.6c.2.6.2,1.2.2,1.9h-6.1c0,.8.2,1.3.6,1.6"/>
  </g>
  <path class="cls-1" d="M207.9,44.5h-2.3v-8.4h2.3v8.4ZM205.5,32.8h2.3v1.9h-2.3v-1.9Z"/>
</svg>